<svg width="313" height="56" viewBox="0 0 313 56" fill="none" xmlns="http://www.w3.org/2000/svg">
<path d="M26.2 32.356C25.5653 31.1773 24.7267 30.2707 23.684 29.636C22.6867 29.0013 21.5533 28.684 20.284 28.684C18.4707 28.684 16.9973 29.4093 15.864 30.86C14.7307 32.3107 14.164 34.2147 14.164 36.572C14.164 38.9747 14.708 40.924 15.796 42.42C16.9293 43.8707 18.4253 44.596 20.284 44.596C23.0493 44.596 24.9987 43.236 26.132 40.516L36.808 45.888C35.4027 48.9253 33.1813 51.2827 30.144 52.96C27.152 54.6373 23.616 55.476 19.536 55.476C15.6827 55.476 12.3053 54.7053 9.404 53.164C6.50267 51.5773 4.25867 49.3787 2.672 46.568C1.08533 43.712 0.292 40.4027 0.292 36.64C0.292 32.832 1.08533 29.5 2.672 26.644C4.304 23.7427 6.57067 21.4987 9.472 19.912C12.4187 18.3253 15.8187 17.532 19.672 17.532C23.5253 17.532 26.9253 18.3707 29.872 20.048C32.864 21.7253 35.1533 24.1053 36.74 27.188L26.2 32.356ZM58.2827 17.532C62.4081 17.532 66.0121 18.3253 69.0947 19.912C72.1774 21.4533 74.5574 23.652 76.2347 26.508C77.9574 29.364 78.8187 32.696 78.8187 36.504C78.8187 40.2667 77.9574 43.5987 76.2347 46.5C74.5574 49.356 72.1774 51.5773 69.0947 53.164C66.0121 54.7053 62.4081 55.476 58.2827 55.476C54.1574 55.476 50.5307 54.7053 47.4027 53.164C44.3201 51.5773 41.9174 49.356 40.1947 46.5C38.5174 43.5987 37.6787 40.2667 37.6787 36.504C37.6787 32.696 38.5174 29.364 40.1947 26.508C41.9174 23.652 44.3201 21.4533 47.4027 19.912C50.5307 18.3253 54.1574 17.532 58.2827 17.532ZM58.2827 28.412C56.2427 28.412 54.6107 29.1827 53.3867 30.724C52.1627 32.22 51.5507 34.192 51.5507 36.64C51.5507 39.1333 52.1627 41.128 53.3867 42.624C54.6107 44.12 56.2427 44.868 58.2827 44.868C60.2774 44.868 61.8867 44.12 63.1107 42.624C64.3347 41.128 64.9467 39.1333 64.9467 36.64C64.9467 34.192 64.3347 32.22 63.1107 30.724C61.8867 29.1827 60.2774 28.412 58.2827 28.412ZM84.23 18.008H97.966V55H84.23V18.008ZM91.03 0.395998C93.1154 0.395998 94.8154 1.05333 96.13 2.368C97.4447 3.68266 98.102 5.38266 98.102 7.468C98.102 9.55333 97.4447 11.2533 96.13 12.568C94.8154 13.8827 93.1154 14.54 91.03 14.54C88.9447 14.54 87.222 13.8827 85.862 12.568C84.5474 11.2533 83.89 9.55333 83.89 7.468C83.89 5.38266 84.5474 3.68266 85.862 2.368C87.222 1.05333 88.9447 0.395998 91.03 0.395998ZM131.777 17.464C134.406 17.464 136.718 18.0533 138.713 19.232C140.753 20.3653 142.317 21.9973 143.405 24.128C144.538 26.2587 145.105 28.7293 145.105 31.54V55H131.369V35.484C131.369 33.6707 130.87 32.22 129.873 31.132C128.921 30.044 127.652 29.5 126.065 29.5C124.206 29.5453 122.733 30.2253 121.645 31.54C120.557 32.8547 120.013 34.5773 120.013 36.708V55H106.277V18.008H120.013V23.72C121.328 21.68 122.96 20.1387 124.909 19.096C126.904 18.008 129.193 17.464 131.777 17.464ZM176.571 17.532C179.971 17.532 182.963 18.3253 185.547 19.912C188.131 21.4987 190.126 23.7427 191.531 26.644C192.982 29.5453 193.707 32.9 193.707 36.708C193.707 40.4707 193.004 43.78 191.599 46.636C190.239 49.4467 188.29 51.6227 185.751 53.164C183.212 54.7053 180.266 55.476 176.911 55.476C174.735 55.476 172.763 55.068 170.995 54.252C169.227 53.436 167.708 52.2573 166.439 50.716V55H152.703V4.544H166.439V22.292C167.663 20.7507 169.136 19.572 170.859 18.756C172.582 17.94 174.486 17.532 176.571 17.532ZM173.103 44.596C175.143 44.596 176.775 43.848 177.999 42.352C179.223 40.8107 179.835 38.816 179.835 36.368C179.835 33.92 179.223 31.948 177.999 30.452C176.775 28.9107 175.143 28.14 173.103 28.14C171.108 28.14 169.499 28.9107 168.275 30.452C167.051 31.948 166.439 33.92 166.439 36.368C166.439 38.816 167.051 40.8107 168.275 42.352C169.499 43.848 171.108 44.596 173.103 44.596ZM216.587 17.464C221.801 17.464 225.858 18.6653 228.759 21.068C231.706 23.4253 233.179 26.7347 233.179 30.996V55H219.715V50.92C218.582 52.416 217.086 53.572 215.227 54.388C213.414 55.204 211.306 55.612 208.903 55.612C205.005 55.612 201.945 54.5693 199.723 52.484C197.502 50.3533 196.391 47.52 196.391 43.984C196.391 40.4027 197.593 37.66 199.995 35.756C202.443 33.8067 206.002 32.8093 210.671 32.764H219.715V32.628C219.715 31.0867 219.171 29.8853 218.083 29.024C216.995 28.1627 215.409 27.732 213.323 27.732C211.827 27.732 210.082 27.9587 208.087 28.412C206.138 28.8653 204.166 29.5227 202.171 30.384L198.771 21.272C205.027 18.7333 210.966 17.464 216.587 17.464ZM213.459 46.636C214.865 46.636 216.134 46.296 217.267 45.616C218.401 44.936 219.217 44.0067 219.715 42.828V39.496H213.459C210.694 39.496 209.311 40.652 209.311 42.964C209.311 44.1427 209.674 45.0493 210.399 45.684C211.125 46.3187 212.145 46.636 213.459 46.636ZM266.528 30.52C261.496 27.936 257.461 26.644 254.424 26.644C253.563 26.644 252.883 26.8027 252.384 27.12C251.885 27.392 251.636 27.8227 251.636 28.412C251.636 29.092 252.089 29.6587 252.996 30.112C253.948 30.52 255.444 30.996 257.484 31.54C260.204 32.3107 262.448 33.0813 264.216 33.852C266.029 34.6227 267.593 35.8013 268.908 37.388C270.268 38.9293 270.948 40.924 270.948 43.372C270.948 47.1347 269.452 50.1267 266.46 52.348C263.513 54.524 259.592 55.612 254.696 55.612C251.432 55.612 248.304 55.1813 245.312 54.32C242.365 53.4133 239.691 52.0987 237.288 50.376L241.504 41.74C243.816 43.236 246.105 44.3693 248.372 45.14C250.684 45.9107 252.86 46.296 254.9 46.296C255.852 46.296 256.6 46.16 257.144 45.888C257.688 45.5707 257.96 45.14 257.96 44.596C257.96 43.916 257.507 43.372 256.6 42.964C255.739 42.5107 254.288 42.012 252.248 41.468C249.619 40.7427 247.42 39.9947 245.652 39.224C243.884 38.4533 242.343 37.2973 241.028 35.756C239.713 34.2147 239.056 32.22 239.056 29.772C239.056 25.964 240.507 22.9493 243.408 20.728C246.309 18.5067 250.117 17.396 254.832 17.396C260.499 17.396 265.916 18.892 271.084 21.884L266.528 30.52ZM293.535 17.532C299.609 17.532 304.347 19.3453 307.747 22.972C311.147 26.5533 312.847 31.472 312.847 37.728C312.847 38.68 312.824 39.3827 312.779 39.836H287.891C288.435 41.604 289.319 42.964 290.543 43.916C291.812 44.868 293.331 45.344 295.099 45.344C297.955 45.344 300.675 44.1653 303.259 41.808L310.399 48.812C308.449 50.988 306.069 52.6427 303.259 53.776C300.493 54.9093 297.388 55.476 293.943 55.476C289.863 55.476 286.327 54.7053 283.335 53.164C280.343 51.5773 278.031 49.3787 276.399 46.568C274.812 43.712 274.019 40.4027 274.019 36.64C274.019 32.832 274.835 29.5 276.467 26.644C278.099 23.7427 280.388 21.4987 283.335 19.912C286.281 18.3253 289.681 17.532 293.535 17.532ZM299.247 33.104C299.292 31.2907 298.793 29.7947 297.751 28.616C296.708 27.4373 295.348 26.848 293.671 26.848C292.084 26.848 290.769 27.4147 289.727 28.548C288.684 29.6813 287.981 31.2 287.619 33.104H299.247Z" fill="#0057FF"/>
</svg>
