<svg width="inherit" height="inherit" viewBox="0 0 8 7" fill="none" xmlns="http://www.w3.org/2000/svg">
<path d="M7.3071 3.83858C7.3071 5.55245 5.75694 6.9418 3.84471 6.9418C1.93248 6.9418 0.382324 5.55245 0.382324 3.83858C0.382324 2.12471 1.93248 0.735352 3.84471 0.735352C5.75694 0.735352 7.3071 2.12471 7.3071 3.83858ZM5.32948 3.39649C5.39841 2.98358 5.04759 2.7616 4.56789 2.61352L4.7235 2.05416L4.34358 1.96931L4.19208 2.51393C4.09221 2.49161 3.98962 2.47058 3.88769 2.44973L4.04027 1.90154L3.66055 1.81669L3.50484 2.37584C3.42216 2.35896 3.34101 2.34228 3.26224 2.32474L3.26267 2.32299L2.7387 2.20574L2.63764 2.5694C2.63764 2.5694 2.91953 2.62729 2.91358 2.63087C3.06746 2.6653 3.09527 2.75655 3.09061 2.82889L2.91336 3.46611C2.92397 3.46854 2.93771 3.47203 2.95286 3.47746C2.94019 3.47465 2.92666 3.47155 2.9127 3.46854L2.66425 4.3612C2.64541 4.40309 2.5977 4.46593 2.49014 4.44208C2.49392 4.44702 2.21398 4.3803 2.21398 4.3803L2.02537 4.77005L2.51979 4.8805C2.61177 4.90116 2.70192 4.92278 2.79064 4.94314L2.63341 5.50889L3.0129 5.59374L3.16861 5.03399C3.26925 5.05844 3.37018 5.08191 3.47139 5.10441L3.31621 5.66152L3.69614 5.74637L3.85337 5.18169C4.50123 5.29156 4.98841 5.24724 5.19345 4.72212C5.3587 4.29931 5.18523 4.05542 4.84437 3.89637C5.0926 3.8451 5.27959 3.69877 5.32948 3.39649ZM4.46141 4.48736C4.344 4.91018 3.54963 4.6816 3.29209 4.62429L3.50072 3.87478C3.75825 3.93237 4.58412 4.04642 4.46141 4.48736ZM4.57892 3.39039C4.4718 3.77499 3.81062 3.57958 3.59615 3.53168L3.78529 2.85189C3.99978 2.89979 4.69049 2.98919 4.57892 3.39039Z" fill="#E3DC23"/>
</svg>
