<svg width="26" height="26" viewBox="0 0 26 26" fill="none" xmlns="http://www.w3.org/2000/svg">
<path fill-rule="evenodd" clip-rule="evenodd" d="M4 0C1.79086 0 0 1.79086 0 4V22C0 24.2091 1.79086 26 4 26H22C24.2091 26 26 24.2091 26 22V4C26 1.79086 24.2091 0 22 0H4ZM9.14165 19.3854C10.1016 19.6254 11.0976 19.7454 12.1296 19.7454C13.2576 19.7454 14.2416 19.5714 15.0816 19.2234C15.9216 18.8754 16.5756 18.3834 17.0436 17.7474C17.5116 17.1114 17.7456 16.3674 17.7456 15.5154C17.7456 14.5554 17.4516 13.7694 16.8636 13.1574C16.2876 12.5454 15.4296 12.1254 14.2896 11.8974L12.0396 11.4474C11.5596 11.3514 11.2356 11.2314 11.0676 11.0874C10.8996 10.9434 10.8156 10.7874 10.8156 10.6194C10.8156 10.3434 10.9596 10.1334 11.2476 9.98941C11.5476 9.84541 11.9976 9.77341 12.5976 9.77341C13.3176 9.77341 13.9716 9.86341 14.5596 10.0434C15.1596 10.2114 15.6876 10.4514 16.1436 10.7634L17.2056 7.95541C16.7016 7.54741 16.0476 7.22341 15.2436 6.98341C14.4396 6.74341 13.5876 6.62341 12.6876 6.62341C11.5476 6.62341 10.5516 6.80341 9.69965 7.16341C8.84765 7.51141 8.18765 8.00341 7.71965 8.63941C7.25165 9.27541 7.01765 10.0254 7.01765 10.8894C7.01765 11.8614 7.30565 12.6534 7.88165 13.2654C8.46965 13.8774 9.34565 14.3034 10.5096 14.5434L12.7956 15.0114C13.2636 15.1074 13.5696 15.2154 13.7136 15.3354C13.8696 15.4554 13.9476 15.6174 13.9476 15.8214C13.9476 16.0374 13.8276 16.2234 13.5876 16.3794C13.3476 16.5234 12.8736 16.5954 12.1656 16.5954C11.6616 16.5954 11.1516 16.5474 10.6356 16.4514C10.1196 16.3434 9.62165 16.2054 9.14165 16.0374C8.66165 15.8574 8.22965 15.6534 7.84565 15.4254L6.78365 18.4134C7.40765 18.8214 8.19365 19.1454 9.14165 19.3854Z" fill="currentColor"/>
</svg>
