<svg width="139" height="52" viewBox="0 0 139 52" fill="none" xmlns="http://www.w3.org/2000/svg">
<path d="M0.00400051 0.543997H4.56V51H0.00400051V0.543997ZM48.8578 15.368V51H44.2338V42.5C43.0551 45.3107 41.2871 47.4413 38.9298 48.892C36.6178 50.3427 33.8071 51.0907 30.4978 51.136C26.2818 51.136 22.9724 49.912 20.5697 47.464C18.2124 44.9707 17.0338 41.5707 17.0338 37.264V15.368H21.6578V36.176C21.6578 39.5307 22.5644 42.16 24.3778 44.064C26.2364 45.9227 28.7751 46.852 31.9938 46.852C35.8018 46.8067 38.7938 45.5147 40.9698 42.976C43.1458 40.392 44.2338 37.0147 44.2338 32.844V15.368H48.8578ZM80.7179 15.232C84.9792 15.232 88.3112 16.4787 90.7139 18.972C93.1619 21.42 94.3859 24.7973 94.3859 29.104V51H89.7619V30.192C89.7619 26.8373 88.8325 24.208 86.9739 22.304C85.1152 20.4 82.5312 19.448 79.2219 19.448C75.5499 19.4933 72.6032 20.6267 70.3819 22.848C68.2059 25.0693 66.9592 28.0613 66.6419 31.824V51H62.0859V15.368H66.6419V23.664C67.8659 20.8987 69.6565 18.8133 72.0139 17.408C74.4165 16.0027 77.3179 15.2773 80.7179 15.232ZM120.858 15.232C124.303 15.232 127.386 16.0027 130.106 17.544C132.826 19.04 134.957 21.148 136.498 23.868C138.039 26.588 138.81 29.6707 138.81 33.116C138.81 36.6067 138.039 39.7347 136.498 42.5C134.957 45.22 132.826 47.3507 130.106 48.892C127.386 50.388 124.303 51.136 120.858 51.136C117.413 51.136 114.33 50.388 111.61 48.892C108.89 47.3507 106.759 45.22 105.218 42.5C103.677 39.7347 102.906 36.6067 102.906 33.116C102.906 29.6707 103.677 26.588 105.218 23.868C106.759 21.148 108.89 19.04 111.61 17.544C114.33 16.0027 117.413 15.232 120.858 15.232ZM120.858 19.176C118.274 19.176 115.962 19.7653 113.922 20.944C111.882 22.1227 110.295 23.7773 109.162 25.908C108.029 28.0387 107.462 30.464 107.462 33.184C107.462 35.9493 108.029 38.3973 109.162 40.528C110.295 42.6587 111.882 44.3133 113.922 45.492C115.962 46.6707 118.274 47.26 120.858 47.26C123.442 47.26 125.754 46.6707 127.794 45.492C129.834 44.3133 131.421 42.6587 132.554 40.528C133.687 38.3973 134.254 35.9493 134.254 33.184C134.254 30.464 133.687 28.0387 132.554 25.908C131.421 23.7773 129.834 22.1227 127.794 20.944C125.754 19.7653 123.442 19.176 120.858 19.176Z" fill="#001689"/>
</svg>
