<svg width="101" height="13" viewBox="0 0 101 13" fill="none" xmlns="http://www.w3.org/2000/svg">
<path d="M5.344 12.192C4.42667 12.192 3.54133 12.0853 2.688 11.872C1.84533 11.6587 1.14667 11.3707 0.592 11.008L1.536 8.352C1.87733 8.55467 2.26133 8.736 2.688 8.896C3.11467 9.04533 3.55733 9.168 4.016 9.264C4.47467 9.34933 4.928 9.392 5.376 9.392C6.00533 9.392 6.42667 9.328 6.64 9.2C6.85333 9.06133 6.96 8.896 6.96 8.704C6.96 8.52267 6.89067 8.37867 6.752 8.272C6.624 8.16533 6.352 8.06933 5.936 7.984L3.904 7.568C2.86933 7.35467 2.09067 6.976 1.568 6.432C1.056 5.888 0.8 5.184 0.8 4.32C0.8 3.552 1.008 2.88533 1.424 2.32C1.84 1.75467 2.42667 1.31733 3.184 1.008C3.94133 0.688 4.82667 0.528 5.84 0.528C6.64 0.528 7.39733 0.634666 8.112 0.848C8.82667 1.06133 9.408 1.34933 9.856 1.712L8.912 4.208C8.50667 3.93067 8.03733 3.71733 7.504 3.568C6.98133 3.408 6.4 3.328 5.76 3.328C5.22667 3.328 4.82667 3.392 4.56 3.52C4.304 3.648 4.176 3.83467 4.176 4.08C4.176 4.22933 4.25067 4.368 4.4 4.496C4.54933 4.624 4.83733 4.73067 5.264 4.816L7.264 5.216C8.27733 5.41867 9.04 5.792 9.552 6.336C10.0747 6.88 10.336 7.57867 10.336 8.432C10.336 9.18933 10.128 9.85067 9.712 10.416C9.296 10.9813 8.71467 11.4187 7.968 11.728C7.22133 12.0373 6.34667 12.192 5.344 12.192ZM11.7211 12V6.16C11.7211 5.776 11.7105 5.392 11.6891 5.008C11.6678 4.61333 11.6358 4.224 11.5931 3.84H14.7931L14.9691 5.136H14.7931C15.0705 4.66667 15.4491 4.304 15.9291 4.048C16.4091 3.78133 16.9478 3.648 17.5451 3.648C18.5051 3.648 19.2198 3.94133 19.6891 4.528C20.1585 5.104 20.3931 6 20.3931 7.216V12H17.0651V7.344C17.0651 6.90667 16.9905 6.60267 16.8411 6.432C16.7025 6.26133 16.5105 6.176 16.2651 6.176C15.9025 6.176 15.6091 6.29867 15.3851 6.544C15.1611 6.77867 15.0491 7.09333 15.0491 7.488V12H11.7211ZM26.3734 12.192C24.8374 12.192 23.648 11.808 22.8054 11.04C21.9627 10.272 21.5414 9.22667 21.5414 7.904C21.5414 7.08267 21.712 6.352 22.0534 5.712C22.4054 5.072 22.896 4.57067 23.5254 4.208C24.1654 3.83467 24.912 3.648 25.7654 3.648C26.6187 3.648 27.328 3.83467 27.8934 4.208C28.4587 4.58133 28.88 5.09333 29.1574 5.744C29.4347 6.384 29.5734 7.12 29.5734 7.952V8.592H24.3574V7.088H27.0934L26.8214 7.312C26.8214 6.78933 26.7307 6.41067 26.5494 6.176C26.368 5.93067 26.1174 5.808 25.7974 5.808C25.424 5.808 25.1414 5.95733 24.9494 6.256C24.768 6.544 24.6774 7.01333 24.6774 7.664V8C24.6774 8.61867 24.8267 9.06667 25.1254 9.344C25.4347 9.61067 25.888 9.744 26.4854 9.744C26.8907 9.744 27.2747 9.70667 27.6374 9.632C28 9.54667 28.3467 9.41333 28.6774 9.232L29.5094 11.392C29.0827 11.648 28.6027 11.8453 28.0694 11.984C27.5467 12.1227 26.9814 12.192 26.3734 12.192ZM33.9844 12.192C33.291 12.192 32.6724 12.0213 32.1284 11.68C31.595 11.3387 31.1737 10.848 30.8644 10.208C30.5657 9.568 30.4164 8.80533 30.4164 7.92C30.4164 7.03467 30.5657 6.272 30.8644 5.632C31.1737 4.992 31.595 4.50133 32.1284 4.16C32.6724 3.81867 33.291 3.648 33.9844 3.648C34.5817 3.648 35.131 3.78667 35.6324 4.064C36.1444 4.34133 36.475 4.704 36.6244 5.152H36.4644L36.6564 3.84H39.8564C39.8137 4.224 39.7817 4.61333 39.7604 5.008C39.739 5.392 39.7284 5.776 39.7284 6.16V12H36.4324L36.4004 10.784H36.5924C36.4324 11.2 36.1017 11.5413 35.6004 11.808C35.1097 12.064 34.571 12.192 33.9844 12.192ZM35.1044 9.744C35.499 9.744 35.819 9.60533 36.0644 9.328C36.3204 9.05067 36.4484 8.58133 36.4484 7.92C36.4484 7.25867 36.3204 6.78933 36.0644 6.512C35.819 6.23467 35.499 6.096 35.1044 6.096C34.7097 6.096 34.3844 6.23467 34.1284 6.512C33.883 6.78933 33.7604 7.25867 33.7604 7.92C33.7604 8.58133 33.883 9.05067 34.1284 9.328C34.3737 9.60533 34.699 9.744 35.1044 9.744ZM41.268 12V0.223999H44.596V7.04H44.628L47.028 3.84H50.932L47.46 8.24V7.168L50.98 12H46.996L44.628 8.704H44.596V12H41.268ZM51.3655 12V0.719999H54.8215V4.88H58.6775V0.719999H62.1335V12H58.6775V7.696H54.8215V12H51.3655ZM68.3265 12.192C66.7905 12.192 65.6012 11.808 64.7585 11.04C63.9158 10.272 63.4945 9.22667 63.4945 7.904C63.4945 7.08267 63.6652 6.352 64.0065 5.712C64.3585 5.072 64.8492 4.57067 65.4785 4.208C66.1185 3.83467 66.8652 3.648 67.7185 3.648C68.5718 3.648 69.2812 3.83467 69.8465 4.208C70.4118 4.58133 70.8332 5.09333 71.1105 5.744C71.3878 6.384 71.5265 7.12 71.5265 7.952V8.592H66.3105V7.088H69.0465L68.7745 7.312C68.7745 6.78933 68.6838 6.41067 68.5025 6.176C68.3212 5.93067 68.0705 5.808 67.7505 5.808C67.3772 5.808 67.0945 5.95733 66.9025 6.256C66.7212 6.544 66.6305 7.01333 66.6305 7.664V8C66.6305 8.61867 66.7798 9.06667 67.0785 9.344C67.3878 9.61067 67.8412 9.744 68.4385 9.744C68.8438 9.744 69.2278 9.70667 69.5905 9.632C69.9532 9.54667 70.2998 9.41333 70.6305 9.232L71.4625 11.392C71.0358 11.648 70.5558 11.8453 70.0225 11.984C69.4998 12.1227 68.9345 12.192 68.3265 12.192ZM75.9375 12.192C75.2442 12.192 74.6255 12.0213 74.0815 11.68C73.5482 11.3387 73.1268 10.848 72.8175 10.208C72.5188 9.568 72.3695 8.80533 72.3695 7.92C72.3695 7.03467 72.5188 6.272 72.8175 5.632C73.1268 4.992 73.5482 4.50133 74.0815 4.16C74.6255 3.81867 75.2442 3.648 75.9375 3.648C76.5348 3.648 77.0842 3.78667 77.5855 4.064C78.0975 4.34133 78.4282 4.704 78.5775 5.152H78.4175L78.6095 3.84H81.8095C81.7668 4.224 81.7348 4.61333 81.7135 5.008C81.6922 5.392 81.6815 5.776 81.6815 6.16V12H78.3855L78.3535 10.784H78.5455C78.3855 11.2 78.0548 11.5413 77.5535 11.808C77.0628 12.064 76.5242 12.192 75.9375 12.192ZM77.0575 9.744C77.4522 9.744 77.7722 9.60533 78.0175 9.328C78.2735 9.05067 78.4015 8.58133 78.4015 7.92C78.4015 7.25867 78.2735 6.78933 78.0175 6.512C77.7722 6.23467 77.4522 6.096 77.0575 6.096C76.6628 6.096 76.3375 6.23467 76.0815 6.512C75.8362 6.78933 75.7135 7.25867 75.7135 7.92C75.7135 8.58133 75.8362 9.05067 76.0815 9.328C76.3268 9.60533 76.6522 9.744 77.0575 9.744ZM86.5011 12.192C85.8078 12.192 85.1891 12.0213 84.6451 11.68C84.1011 11.3387 83.6691 10.848 83.3491 10.208C83.0398 9.568 82.8851 8.80533 82.8851 7.92C82.8851 7.03467 83.0398 6.272 83.3491 5.632C83.6585 4.992 84.0851 4.50133 84.6291 4.16C85.1838 3.81867 85.8078 3.648 86.5011 3.648C87.0878 3.648 87.6265 3.78133 88.1171 4.048C88.6078 4.304 88.9385 4.64 89.1091 5.056H88.8691V0.223999H92.1971V12H88.9171V10.688H89.1411C88.9918 11.136 88.6665 11.4987 88.1651 11.776C87.6638 12.0533 87.1091 12.192 86.5011 12.192ZM87.6051 9.744C87.9891 9.744 88.3091 9.60533 88.5651 9.328C88.8211 9.05067 88.9491 8.58133 88.9491 7.92C88.9491 7.25867 88.8211 6.78933 88.5651 6.512C88.3091 6.23467 87.9891 6.096 87.6051 6.096C87.2211 6.096 86.8958 6.23467 86.6291 6.512C86.3731 6.78933 86.2451 7.25867 86.2451 7.92C86.2451 8.58133 86.3731 9.05067 86.6291 9.328C86.8958 9.60533 87.2211 9.744 87.6051 9.744ZM96.9848 12.192C96.1954 12.192 95.4808 12.1173 94.8408 11.968C94.2114 11.8187 93.6728 11.616 93.2248 11.36L93.9928 9.216C94.4088 9.42933 94.8834 9.61067 95.4168 9.76C95.9608 9.90933 96.4888 9.984 97.0008 9.984C97.3421 9.984 97.5821 9.94133 97.7208 9.856C97.8594 9.76 97.9288 9.64267 97.9288 9.504C97.9288 9.38667 97.8808 9.296 97.7848 9.232C97.6994 9.168 97.5768 9.12533 97.4168 9.104L95.6248 8.8C94.9314 8.68267 94.3928 8.432 94.0088 8.048C93.6248 7.65333 93.4328 7.14133 93.4328 6.512C93.4328 5.936 93.5874 5.43467 93.8968 5.008C94.2168 4.58133 94.6648 4.25067 95.2408 4.016C95.8274 3.77067 96.5154 3.648 97.3048 3.648C97.9341 3.648 98.5368 3.71733 99.1128 3.856C99.6994 3.984 100.211 4.192 100.649 4.48L99.8328 6.56C99.5021 6.35733 99.1074 6.192 98.6488 6.064C98.2008 5.92533 97.7901 5.856 97.4168 5.856C97.0221 5.856 96.7448 5.904 96.5848 6C96.4354 6.08533 96.3608 6.19733 96.3608 6.336C96.3608 6.432 96.3981 6.51733 96.4728 6.592C96.5581 6.656 96.6861 6.704 96.8568 6.736L98.6488 7.024C99.3528 7.13067 99.8968 7.376 100.281 7.76C100.665 8.13333 100.857 8.64533 100.857 9.296C100.857 9.91467 100.691 10.4373 100.361 10.864C100.041 11.2907 99.5874 11.6213 99.0008 11.856C98.4248 12.08 97.7528 12.192 96.9848 12.192Z" fill="currentColor"/>
</svg>
