<svg width="12" height="86" viewBox="0 0 12 86" fill="currentColor" xmlns="http://www.w3.org/2000/svg">
<path d="M0.666667 6C0.666667 8.94552 3.05448 11.3333 6 11.3333C8.94552 11.3333 11.3333 8.94552 11.3333 6C11.3333 3.05448 8.94552 0.666667 6 0.666667C3.05448 0.666667 0.666667 3.05448 0.666667 6ZM0.666667 80.5C0.666667 83.4455 3.05448 85.8333 6 85.8333C8.94552 85.8333 11.3333 83.4455 11.3333 80.5C11.3333 77.5545 8.94552 75.1667 6 75.1667C3.05448 75.1667 0.666667 77.5545 0.666667 80.5ZM5 8.06944C5 8.62173 5.44772 9.06944 6 9.06944C6.55228 9.06944 7 8.62173 7 8.06944H5ZM7 12.2083C7 11.656 6.55228 11.2083 6 11.2083C5.44772 11.2083 5 11.656 5 12.2083H7ZM5 16.3472C5 16.8995 5.44772 17.3472 6 17.3472C6.55228 17.3472 7 16.8995 7 16.3472H5ZM7 20.4861C7 19.9338 6.55228 19.4861 6 19.4861C5.44772 19.4861 5 19.9338 5 20.4861H7ZM5 24.625C5 25.1773 5.44772 25.625 6 25.625C6.55228 25.625 7 25.1773 7 24.625H5ZM7 28.7639C7 28.2116 6.55228 27.7639 6 27.7639C5.44772 27.7639 5 28.2116 5 28.7639H7ZM5 32.9028C5 33.4551 5.44772 33.9028 6 33.9028C6.55228 33.9028 7 33.4551 7 32.9028H5ZM7 37.0417C7 36.4894 6.55228 36.0417 6 36.0417C5.44772 36.0417 5 36.4894 5 37.0417H7ZM5 41.1806C5 41.7328 5.44772 42.1806 6 42.1806C6.55228 42.1806 7 41.7328 7 41.1806H5ZM7 45.3194C7 44.7672 6.55228 44.3194 6 44.3194C5.44772 44.3194 5 44.7672 5 45.3194H7ZM5 49.4583C5 50.0106 5.44772 50.4583 6 50.4583C6.55228 50.4583 7 50.0106 7 49.4583H5ZM7 53.5972C7 53.0449 6.55228 52.5972 6 52.5972C5.44772 52.5972 5 53.0449 5 53.5972H7ZM5 57.7361C5 58.2884 5.44772 58.7361 6 58.7361C6.55228 58.7361 7 58.2884 7 57.7361H5ZM7 61.875C7 61.3227 6.55228 60.875 6 60.875C5.44772 60.875 5 61.3227 5 61.875H7ZM5 66.0139C5 66.5662 5.44772 67.0139 6 67.0139C6.55228 67.0139 7 66.5662 7 66.0139H5ZM7 70.1528C7 69.6005 6.55228 69.1528 6 69.1528C5.44772 69.1528 5 69.6005 5 70.1528H7ZM5 74.2917C5 74.8439 5.44772 75.2917 6 75.2917C6.55228 75.2917 7 74.8439 7 74.2917H5ZM7 78.4305C7 77.8783 6.55228 77.4305 6 77.4305C5.44772 77.4305 5 77.8783 5 78.4305H7ZM5 6V8.06944H7V6H5ZM5 12.2083V16.3472H7V12.2083H5ZM5 20.4861V24.625H7V20.4861H5ZM5 28.7639V32.9028H7V28.7639H5ZM5 37.0417V41.1806H7V37.0417H5ZM5 45.3194V49.4583H7V45.3194H5ZM5 53.5972V57.7361H7V53.5972H5ZM5 61.875V66.0139H7V61.875H5ZM5 70.1528V74.2917H7V70.1528H5ZM5 78.4305V80.5H7V78.4305H5Z" fill="currentColor" fill-opacity="0.8"/>
</svg>
