<svg width="22" height="13" viewBox="0 0 22 13" fill="none" xmlns="http://www.w3.org/2000/svg">
<path d="M16.7319 12.0947L20.161 8.66556C20.7178 8.08205 21.0285 7.30649 21.0285 6.49993C21.0285 5.69337 20.7178 4.91781 20.161 4.33431L16.7319 0.905182C16.4858 0.658961 16.1519 0.52059 15.8038 0.520508C15.4557 0.520426 15.1218 0.65864 14.8756 0.904744C14.6293 1.15085 14.491 1.48468 14.4909 1.83281C14.4908 2.18094 14.629 2.51484 14.8751 2.76106L17.3076 5.19443L1.33887 5.21456C0.990771 5.21456 0.656931 5.35284 0.41079 5.59898C0.164648 5.84512 0.0263672 6.17896 0.0263672 6.52706C0.0263672 6.87515 0.164648 7.20899 0.41079 7.45513C0.656931 7.70128 0.990771 7.83956 1.33887 7.83956L17.291 7.81943L14.8751 10.2388C14.636 10.4863 14.5037 10.8179 14.5067 11.162C14.5097 11.5062 14.6478 11.8353 14.8911 12.0787C15.1345 12.322 15.4636 12.4601 15.8078 12.4631C16.1519 12.4661 16.4835 12.3338 16.731 12.0947H16.7319Z" fill="black" fill-opacity="0.8"/>
</svg>
